{"title":"The.Sacrifice.1986.720p.BluRay.x264-CiNEFiLE","uid":6553840,"size":5868126819,"categoryP":"video","categoryS":"hd___movies","magnet":"?xt=urn:btih:174e145248404590440407d99fec00658af2b22a&amp;dn=The.Sacrifice.1986.720p.BluRay.x264-CiNEFiLE&amp;tr=udp%3A%2F%2Ftracker.openbittorrent.com%3A80&amp;tr=udp%3A%2F%2Fopen.demonii.com%3A1337&amp;tr=udp%3A%2F%2Ftracker.coppersurfer.tk%3A6969&amp;tr=udp%3A%2F%2Fexodus.desync.com%3A6969","seeders":9,"leechers":1,"uploader":"mfccorrea","files":1,"time":1311202480,"description":"The Sacrifice, director Andrei Tarkovsky's final film, begins in Bergmanesque fashion on a small, remote island, where friends and family gather for drama critic Alexander's (Erland Josephson) birthday celebration.\n\nThe revelry is interrupted by a radio announcement: World War III has begun, and Mankind is only hours away from utter annihilation. Each of the guests reacts differently to the news: the most dramatic response is Alexander's, who promises God that he'll give up everything he holds dear - including his beloved 6-year-old son - if war is averted. Allan Edwall, a local mailman with purported mystical powers, offers to intervene with the Creator on Josephson's behalf.\n\nThe Sacrifice is so dependent upon its visuals and overall mood that any attempt at a detailed synopsis would be woefully inadequate. The willingness of Tarkovsky's protagonist to forego all his possessions may well have sprung from the cancer-ridden director's awareness that he, too, would soon be giving up everything to face his Maker.\n\n   General\n      Complete name : The.Sacrifice.1986.720p.BluRay.x264-CiNEFiLE.mkv\n      Format : Matroska\n      File size : 5.47 GiB\n      Duration : 2h 28mn\n      Overall bit rate : 5 261 Kbps\n      Encoded date : UTC 2011-07-14 15:44:26\n      Writing application : mkvmerge v4.4.0 ('Die Wiederkehr') built on Oct 31 2010 21:52:48\n      Writing library : libebml v1.0.0 + libmatroska v1.0.0\n   Video #1\n      ID : 1\n      Format : AVC\n      Format/Info : Advanced Video Codec\n      Format profile : &lt;a class=&quot;__cf_email__&quot; href=&quot;/cdn-cgi/l/email-protection&quot; data-cfemail=&quot;baf2d3ddd2faf689948b&quot;&gt;[email&amp;#160;protected]&lt;/a&gt;&lt;script cf-hash='f9e31' type=&quot;text/javascript&quot;&gt;\n/* &lt;![CDATA[ */!function(){try{var t=&quot;currentScript&quot;in document?document.currentScript:function(){for(var t=document.getElementsByTagName(&quot;script&quot;),e=t.length;e--;)if(t[e].getAttribute(&quot;cf-hash&quot;))return t[e]}();if(t&amp;&amp;t.previousSibling){var e,r,n,i,c=t.previousSibling,a=c.getAttribute(&quot;data-cfemail&quot;);if(a){for(e=&quot;&quot;,r=parseInt(a.substr(0,2),16),n=2;a.length-n;n+=2)i=parseInt(a.substr(n,2),16)^r,e+=String.fromCharCode(i);e=document.createTextNode(e),c.parentNode.replaceChild(e,c)}}}catch(u){}}();/* ]]&gt; */&lt;/script&gt;\n      Format settings, CABAC : Yes\n      Format settings, ReFrames : 5 frames\n      Muxing mode : Container profile=&lt;a class=&quot;__cf_email__&quot; href=&quot;/cdn-cgi/l/email-protection&quot; data-cfemail=&quot;b4e1dadfdadbc3daf4879a85&quot;&gt;[email&amp;#160;protected]&lt;/a&gt;&lt;script cf-hash='f9e31' type=&quot;text/javascript&quot;&gt;\n/* &lt;![CDATA[ */!function(){try{var t=&quot;currentScript&quot;in document?document.currentScript:function(){for(var t=document.getElementsByTagName(&quot;script&quot;),e=t.length;e--;)if(t[e].getAttribute(&quot;cf-hash&quot;))return t[e]}();if(t&amp;&amp;t.previousSibling){var e,r,n,i,c=t.previousSibling,a=c.getAttribute(&quot;data-cfemail&quot;);if(a){for(e=&quot;&quot;,r=parseInt(a.substr(0,2),16),n=2;a.length-n;n+=2)i=parseInt(a.substr(n,2),16)^r,e+=String.fromCharCode(i);e=document.createTextNode(e),c.parentNode.replaceChild(e,c)}}}catch(u){}}();/* ]]&gt; */&lt;/script&gt;\n      Codec ID : V_MPEG4/ISO/AVC\n      Duration : 2h 28mn\n      Bit rate : 4 517 Kbps\n      Nominal bit rate : 4 620 Kbps\n      Width : 1 200 pixels\n      Height : 720 pixels\n      Display aspect ratio : 1.667\n      Frame rate : 23.976 fps\n      Resolution : 24 bits\n      Colorimetry : 4:2:0\n      Scan type : Progressive\n      Bits/(Pixel*Frame) : 0.218\n      Stream size : 4.69 GiB (86%)\n      Writing library : x264 core 116 r2019 9cc407d      \n   Audio #2\n      ID : 2\n      Format : AC-3\n      Format/Info : Audio Coding 3\n      Codec ID : A_AC3\n      Duration : 2h 28mn\n      Bit rate mode : Constant\n      Bit rate : 640 Kbps\n      Channel(s) : 2 channels\n      Channel positions : L R\n      Sampling rate : 48.0 KHz\n      Stream size : 681 MiB (12%)\n      Language: Swedish\n   Text #3\n      ID : 3\n      Format : UTF-8\n      Codec ID : S_TEXT/UTF8\n      Codec ID/Info : UTF-8 Plain Text\n      Language: English\n &lt;a href=&quot;\nhttp://www.imdb.com/title/tt0091670/&quot; rel=&quot;nofollow&quot; target=&quot;_NEW&quot;&gt;\nhttp://www.imdb.com/title/tt0091670/&lt;/a&gt;\n\nSwedish audio; English subtitles muxed in mkv","torrent":{"xt":"urn:btih:174e145248404590440407d99fec00658af2b22a","amp;dn":"The.Sacrifice.1986.720p.BluRay.x264-CiNEFiLE","amp;tr":["udp%3A%2F%2Ftracker.openbittorrent.com%3A80","udp%3A%2F%2Fopen.demonii.com%3A1337","udp%3A%2F%2Ftracker.coppersurfer.tk%3A6969","udp%3A%2F%2Fexodus.desync.com%3A6969"],"infoHash":"174e145248404590440407d99fec00658af2b22a","infoHashBuffer":{"type":"Buffer","data":[23,78,20,82,72,64,69,144,68,4,7,217,159,236,0,101,138,242,178,42]},"announce":[],"urlList":[]}}